# xmcd
#
# Track frame offsets:
#       150
#       12105
#       28007
#       39490
#       56847
#       73200
#       83432
#       99952
#       114280
#       132250
#       147997
#       161437
#
# Disc length: 2383 seconds
#
# Revision: 0
# Processed by: cddbd v1.5.2PL0 Copyright (c) Steve Scherf et al.
# Submitted via: CD-DA_X-Tractor v0.24
#
DISCID=95094d0c
DTITLE=Blue Highway - Blue Highway
DYEAR=1999
DGENRE=bluegrass
TTITLE0=01 Born with a Hammer in my Hand
TTITLE1=02 Toubles Up and Down the Road
TTITLE2=03 Lonesome Hearted Blues
TTITLE3=04 Clay and Ottie
TTITLE4=05 Man of Constant Sorrow
TTITLE5=06 I am Near the Gate
TTITLE6=07 I Hung my Head
TTITLE7=08 Don't Come Out of the Hole
TTITLE8=09 Loney Old Town
TTITLE9=10 It Wasn't You
TTITLE10=11 That Could Be You
TTITLE11=12 Father I Know Why
EXTD=
EXTT0=
EXTT1=
EXTT2=
EXTT3=
EXTT4=
EXTT5=
EXTT6=
EXTT7=
EXTT8=
EXTT9=
EXTT10=
EXTT11=
PLAYORDER=
